<svg xmlns="http://www.w3.org/2000/svg" width="1600" height="900" viewBox="0 0 1600 900">
  <defs>
    <linearGradient id="bg-PulseCRMCover" x1="0" y1="0" x2="1" y2="1">
      <stop offset="0%" stop-color="#fafafa"/>
      <stop offset="100%" stop-color="#e4e4e7"/>
    </linearGradient>
    <linearGradient id="accent-PulseCRMCover" x1="0" y1="0" x2="1" y2="0">
      <stop offset="0%" stop-color="#be123c" stop-opacity="0.9"/>
      <stop offset="100%" stop-color="#be123c" stop-opacity="0.55"/>
    </linearGradient>
  </defs>
  <rect width="1600" height="900" fill="url(#bg-PulseCRMCover)"/>
  <rect x="0" y="0" width="1600" height="10" fill="url(#accent-PulseCRMCover)"/>
  <g opacity="0.5" stroke="#d4d4d8" stroke-width="1">
    <line x1="0" y1="150" x2="1600" y2="150"/>
    <line x1="0" y1="300" x2="1600" y2="300"/>
    <line x1="0" y1="450" x2="1600" y2="450"/>
    <line x1="0" y1="600" x2="1600" y2="600"/>
    <line x1="0" y1="750" x2="1600" y2="750"/>
    <line x1="0" y1="900" x2="1600" y2="900"/>
  </g>
  <rect x="96" y="126.00000000000001" width="544" height="90" rx="14" fill="#be123c" opacity="0.12"/>
  <rect x="96" y="270" width="800" height="144" rx="18" fill="#ffffff" stroke="#e4e4e7" stroke-width="2"/>
  <rect x="96" y="468" width="1408" height="306" rx="22" fill="#ffffff" stroke="#e4e4e7" stroke-width="2"/>
  <circle cx="1440" cy="180" r="81" fill="#be123c" opacity="0.18"/>
  <text x="96" y="234" font-family="Arial, sans-serif" font-size="40.5" fill="#be123c" font-weight="700" letter-spacing="2">PULSE CRM</text>
  <text x="800" y="450" text-anchor="middle" font-family="Arial, sans-serif" font-size="58.5" fill="#18181b" font-weight="700">Cover</text>
  <text x="800" y="522" text-anchor="middle" font-family="Arial, sans-serif" font-size="27" fill="#71717a">Placeholder preview — replace with real screenshot</text>
</svg>